<?xml version="1.0" standalone="no"?>
<!DOCTYPE svg PUBLIC "-//W3C//DTD SVG 20010904//EN"
 "http://www.w3.org/TR/2001/REC-SVG-20010904/DTD/svg10.dtd">
<svg version="1.0" xmlns="http://www.w3.org/2000/svg"
 width="200.000000pt" height="200.000000pt" viewBox="0 0 200.000000 200.000000"
 preserveAspectRatio="xMidYMid meet">

<g transform="translate(0.000000,200.000000) scale(0.100000,-0.100000)"
fill="#ff2d55" stroke="none">
<path d="M294 1882 c-87 -31 -154 -100 -180 -188 -12 -43 -14 -149 -12 -715
l3 -664 24 -48 c44 -84 46 -85 153 -37 470 211 884 566 1167 1000 138 211 317
603 291 635 -26 32 -99 35 -747 35 -592 -1 -652 -2 -699 -18z m884 -124 l119
-107 -4 -53 c-2 -29 -13 -100 -24 -157 -84 -439 -349 -819 -730 -1045 -89 -53
-292 -140 -311 -134 -6 2 22 31 62 63 165 132 367 362 472 540 173 290 278
647 278 940 0 37 4 65 9 63 5 -1 63 -51 129 -110z m-608 -147 l115 -48 17 -84
c62 -298 4 -606 -158 -850 -71 -108 -253 -293 -270 -276 -3 3 13 34 35 69 101
160 168 339 202 537 35 209 17 473 -46 650 -15 44 -17 51 -12 51 1 0 54 -22
117 -49z"/>
<path d="M1876 1234 c-60 -127 -218 -337 -361 -480 -323 -324 -785 -552 -1214
-600 l-64 -7 39 -21 c38 -21 50 -21 698 -24 562 -2 667 0 711 12 66 20 111 50
152 104 62 81 63 98 61 601 -3 450 -3 453 -22 415z"/>
</g>
</svg>
